<svg width="474" height="230" viewBox="0 0 474 230" fill="none" xmlns="http://www.w3.org/2000/svg">
<path d="M55.6 118.4C50.6667 118.4 48.2 115.6 48.2 110V78.6C48.2 78.2667 48.0333 78.1 47.7 78.1H35.9C35.5667 78.1 35.4 78.2667 35.4 78.6V101.4C35.4 107 32.9667 109.8 28.1 109.8C23.2333 109.8 20.8 107 20.8 101.4V83.5C20.8 83.1667 20.6667 83.1333 20.4 83.4C17.1333 86.7333 14.5 89.1 12.5 90.5C10.5 91.9 8.06667 90.5 5.2 86.3C2.4 82.0333 3.33333 78.3667 8 75.3C13.1333 72.0333 19 64.0667 25.6 51.4C25.7333 51.1333 25.6333 51 25.3 51H13.3C7.7 51 4.9 48.6667 4.9 44C4.9 39.4 7.7 37.1 13.3 37.1H30.6C31.4667 37.1 32.0667 36.7 32.4 35.9C33.6 32.5 34.5 29.5333 35.1 27C35.7 24.4 38.5 23.8 43.5 25.2C48.4333 26.6 50.0333 30 48.3 35.4L47.9 36.6C47.7667 36.9333 47.8667 37.1 48.2 37.1H87C92.6 37.1 95.4 39.4 95.4 44C95.4 48.6667 92.6 51 87 51H43.6C42.6 51 41.9 51.4667 41.5 52.4C39.6333 56.4 37.6 60.2667 35.4 64C35.2 64.2667 35.2667 64.4 35.6 64.4H47.7C48.0333 64.4 48.2 64.2333 48.2 63.9V62.4C48.2 56.8 50.6667 54 55.6 54C60.4667 54 62.9 56.8 62.9 62.4V63.9C62.9 64.2333 63.0667 64.4 63.4 64.4H82.6C88.2 64.4 91 67.2 91 72.8V95C91 98.3333 90.5667 100.933 89.7 102.8C88.9 104.667 87.4333 106.1 85.3 107.1C82.1667 108.567 78.6667 109.3 74.8 109.3C69.2 109.3 66.4 107.1 66.4 102.7C66.4667 98.3 68.9 96.1667 73.7 96.3C74.0333 96.3 74.5333 96.3 75.2 96.3C75.8667 96.3 76.2 95.7667 76.2 94.7V78.6C76.2 78.2667 76.0333 78.1 75.7 78.1H63.4C63.0667 78.1 62.9 78.2667 62.9 78.6V110C62.9 115.6 60.4667 118.4 55.6 118.4ZM157.7 118.4C152.5 118.4 149.9 115.6 149.9 110V72.9C149.9 72.5667 149.733 72.4 149.4 72.4H122.6C117 72.4 114.2 70 114.2 65.2C114.2 60.4 117 58 122.6 58H148.7C149.033 58 149.2 57.8333 149.2 57.5V31.9C149.2 26.3 151.8 23.5 157 23.5C162.133 23.5 164.7 26.3 164.7 31.9V33.5C164.7 33.8333 164.867 34 165.2 34H188.5C194.1 34 196.9 36.3 196.9 40.9C196.9 45.5667 194.1 47.9 188.5 47.9H165.2C164.867 47.9 164.7 48.0667 164.7 48.4V57.5C164.7 57.8333 164.867 58 165.2 58H197.7C203.3 58 206.1 60.4 206.1 65.2C206.1 70 203.3 72.4 197.7 72.4H165.9C165.567 72.4 165.4 72.5667 165.4 72.9V110C165.4 115.6 162.833 118.4 157.7 118.4ZM170.2 93.9C165.133 91.7 163.433 88.5333 165.1 84.4C166.7 80.2667 170.133 79.1667 175.4 81.1C187.867 85.7667 195.4 88.7333 198 90C200.6 91.2 200.733 94.0667 198.4 98.6C196.067 103.133 192.433 104.067 187.5 101.4C186.433 100.8 180.667 98.3 170.2 93.9Z" fill="url(#paint0_linear_1036_5115)"/>
<path d="M28.0762 184.908C28.2064 185.006 28.5807 185.055 29.1992 185.055C29.8177 185.055 30.2897 184.843 30.6152 184.42C30.9408 183.997 31.1035 183.248 31.1035 182.174V181.246C31.1035 180.042 30.957 179.179 30.6641 178.658C30.4036 178.137 29.9479 177.877 29.2969 177.877C28.6784 177.877 28.2552 177.942 28.0273 178.072C28.0599 178.235 28.0762 178.512 28.0762 178.902V184.908ZM28.0762 166.5C28.2064 166.598 28.5807 166.646 29.1992 166.646C29.8177 166.646 30.2897 166.402 30.6152 165.914C30.9408 165.426 31.1035 164.628 31.1035 163.521V163.229C31.1035 162.057 30.957 161.227 30.6641 160.738C30.4036 160.217 29.9479 159.957 29.2969 159.957C28.6784 159.957 28.2552 160.022 28.0273 160.152C28.0599 160.315 28.0762 160.592 28.0762 160.982V166.5ZM1.5625 147.701C1.5625 146.952 2.18099 146.106 3.41797 145.162C6.02214 143.176 10.612 141.63 17.1875 140.523C20.6055 139.97 24.3652 139.693 28.4668 139.693C38.2324 139.693 45.6217 141.581 50.6348 145.357C55.0293 148.678 57.2266 153.04 57.2266 158.443C57.2266 160.396 56.8848 162.317 56.2012 164.205C55.5176 166.061 54.541 167.46 53.2715 168.404C51.5462 167.525 49.8861 167.086 48.291 167.086C47.5423 167.086 46.9727 167.232 46.582 167.525C46.1914 167.818 45.9961 168.355 45.9961 169.137C50.7812 169.332 54.5085 171.057 57.1777 174.312C59.554 177.275 60.7422 180.953 60.7422 185.348C60.7422 192.151 57.8939 197.099 52.1973 200.191C46.8587 203.089 38.8184 204.537 28.0762 204.537C20.5566 204.537 15.0391 204.309 11.5234 203.854C8.00781 203.365 5.46875 202.242 3.90625 200.484C2.34375 198.727 1.5625 196.057 1.5625 192.477V147.701ZM103.574 176.803V185.348C103.802 185.576 104.176 185.689 104.697 185.689C105.218 185.689 105.592 185.51 105.82 185.152C106.048 184.794 106.162 184.176 106.162 183.297V176.314C106.162 173.189 106.032 171.122 105.771 170.113C105.511 169.072 105.023 168.551 104.307 168.551C103.851 168.551 103.46 168.714 103.135 169.039C103.428 172.262 103.574 174.85 103.574 176.803ZM85.3125 198.434C79.974 193.29 77.3047 186.324 77.3047 177.535C77.3047 168.714 79.8112 161.764 84.8242 156.686C89.8698 151.575 96.4779 149.02 104.648 149.02C112.819 149.02 119.427 151.673 124.473 156.979C129.486 162.285 131.992 169.202 131.992 177.73C131.992 186.227 129.567 192.981 124.717 197.994C119.899 203.007 113.34 205.514 105.039 205.514C96.7383 205.514 90.1628 203.154 85.3125 198.434ZM175.215 176.803V185.348C175.443 185.576 175.817 185.689 176.338 185.689C176.859 185.689 177.233 185.51 177.461 185.152C177.689 184.794 177.803 184.176 177.803 183.297V176.314C177.803 173.189 177.673 171.122 177.412 170.113C177.152 169.072 176.663 168.551 175.947 168.551C175.492 168.551 175.101 168.714 174.775 169.039C175.068 172.262 175.215 174.85 175.215 176.803ZM156.953 198.434C151.615 193.29 148.945 186.324 148.945 177.535C148.945 168.714 151.452 161.764 156.465 156.686C161.51 151.575 168.118 149.02 176.289 149.02C184.46 149.02 191.068 151.673 196.113 156.979C201.126 162.285 203.633 169.202 203.633 177.73C203.633 186.227 201.208 192.981 196.357 197.994C191.54 203.007 184.98 205.514 176.68 205.514C168.379 205.514 161.803 203.154 156.953 198.434ZM248.369 205.514C239.906 205.514 233.151 202.91 228.105 197.701C223.092 192.46 220.586 185.445 220.586 176.656C220.586 167.867 223.434 160.917 229.131 155.807C234.209 151.249 240.557 148.971 248.174 148.971C254.945 148.971 260.56 150.647 265.02 154C269.479 157.32 271.709 161.845 271.709 167.574C271.709 171.546 270.472 174.785 267.998 177.291C265.557 179.765 262.334 181.002 258.33 181.002C255.075 181.002 252.357 180.139 250.176 178.414C248.027 176.656 246.758 174.378 246.367 171.578C244.935 171.578 244.219 172.099 244.219 173.141C244.219 175.517 245.391 177.698 247.734 179.684C250.436 182.027 253.789 183.199 257.793 183.199C261.829 183.199 265.166 182.337 267.803 180.611C269.43 183.118 270.244 186.161 270.244 189.742C270.244 193.909 268.454 197.473 264.873 200.436C260.771 203.821 255.27 205.514 248.369 205.514ZM337.686 179.83C337.686 182.174 337.946 184.062 338.467 185.494C338.988 186.926 339.899 188.049 341.201 188.863C341.234 189.026 341.25 189.335 341.25 189.791V190.67C341.25 195.292 339.85 198.889 337.051 201.461C334.577 203.74 331.517 204.879 327.871 204.879C325.397 204.879 323.135 204.293 321.084 203.121C319.033 201.949 317.568 200.257 316.689 198.043C315.583 198.043 315.029 198.58 315.029 199.654C315.029 200.566 315.599 201.591 316.738 202.73C314.622 204.163 311.432 204.879 307.168 204.879C301.146 204.879 296.328 203.251 292.715 199.996C289.134 196.708 287.344 192.135 287.344 186.275C287.344 180.383 289.248 175.826 293.057 172.604C296.54 169.706 301.048 168.258 306.582 168.258C308.47 168.258 310.293 168.388 312.051 168.648C313.223 168.876 313.857 169.007 313.955 169.039C314.053 168.714 314.102 168.437 314.102 168.209C314.102 167.363 313.385 166.793 311.953 166.5C310.521 166.207 308.649 166.061 306.338 166.061C301.423 166.061 297.223 167.053 293.74 169.039C292.145 166.337 291.348 162.919 291.348 158.785C291.348 156.441 291.641 154.7 292.227 153.561C294.57 152.486 297.549 151.542 301.162 150.729C304.775 149.882 308.584 149.459 312.588 149.459C320.856 149.459 327.106 151.266 331.338 154.879C335.57 158.492 337.686 163.619 337.686 170.26V179.83ZM312.344 182.223C310.977 182.223 310.293 182.841 310.293 184.078C310.293 185.25 311.09 185.836 312.686 185.836C313.792 185.836 314.606 185.576 315.127 185.055C315.648 184.501 315.908 183.557 315.908 182.223C315.908 182.223 314.72 182.223 312.344 182.223ZM372.119 204.635C368.245 204.635 365.153 203.935 362.842 202.535C360.27 201.07 358.984 198.906 358.984 196.041V170.895C357.064 168.193 356.104 164.872 356.104 160.934C356.104 156.962 357.064 153.528 358.984 150.631H366.455C370.296 150.631 373.047 151.868 374.707 154.342C373.893 155.253 373.177 156.409 372.559 157.809C371.94 159.208 371.631 160.217 371.631 160.836C371.631 161.422 371.777 161.861 372.07 162.154C372.396 162.447 372.852 162.594 373.438 162.594C374.577 158.069 376.742 154.749 379.932 152.633C382.568 150.842 385.824 149.947 389.697 149.947C394.515 149.947 398.291 150.973 401.025 153.023C402.002 155.628 402.49 158.818 402.49 162.594C402.49 166.337 401.742 169.739 400.244 172.799C399.137 173.385 397.607 173.889 395.654 174.312C393.701 174.703 391.732 174.898 389.746 174.898C387.76 174.898 385.97 174.768 384.375 174.508C382.812 174.215 381.673 173.954 380.957 173.727C380.697 173.987 380.566 174.361 380.566 174.85C380.566 175.338 380.876 175.712 381.494 175.973C382.145 176.201 383.219 176.461 384.717 176.754V201.266C381.169 203.512 376.969 204.635 372.119 204.635ZM446.738 169.381C446.413 169.055 446.022 168.893 445.566 168.893C444.85 168.893 444.362 169.413 444.102 170.455C443.841 171.464 443.711 173.531 443.711 176.656V181.637C443.711 182.516 443.825 183.134 444.053 183.492C444.281 183.85 444.655 184.029 445.176 184.029C445.697 184.029 446.071 183.915 446.299 183.688V177.145C446.299 173.954 446.445 171.367 446.738 169.381ZM443.223 140.523C444.948 138.505 446.852 136.992 448.936 135.982C451.019 134.941 453.672 134.42 456.895 134.42C460.801 134.42 463.975 135.51 466.416 137.691C468.923 140.035 470.176 143.193 470.176 147.164V179.391C470.176 184.241 471.348 187.398 473.691 188.863C473.724 189.026 473.74 189.335 473.74 189.791V190.67C473.74 195.292 472.34 198.889 469.541 201.461C467.067 203.74 464.007 204.879 460.361 204.879C457.822 204.879 455.625 204.342 453.77 203.268C451.589 202.031 450.059 200.338 449.18 198.189C448.073 198.189 447.52 198.727 447.52 199.801C447.52 200.289 447.699 200.859 448.057 201.51C448.447 202.128 448.968 202.682 449.619 203.17C447.699 204.309 445.208 204.879 442.148 204.879C438.014 204.879 434.141 203.935 430.527 202.047C426.947 200.126 424.098 197.245 421.982 193.404C419.541 189.01 418.32 183.688 418.32 177.438C418.32 169.104 420.648 162.561 425.303 157.809C429.99 153.056 435.964 150.68 443.223 150.68C447.52 150.68 451.263 151.493 454.453 153.121C454.811 152.763 454.99 152.389 454.99 151.998C454.99 151.021 453.835 150.191 451.523 149.508C449.212 148.824 446.885 148.482 444.541 148.482C444.541 145.162 444.102 142.509 443.223 140.523Z" fill="url(#paint1_linear_1036_5115)"/>
<defs>
<linearGradient id="paint0_linear_1036_5115" x1="0" y1="65" x2="210" y2="65" gradientUnits="userSpaceOnUse">
<stop stop-color="#FFA1B8"/>
<stop offset="1" stop-color="#0495FF"/>
</linearGradient>
<linearGradient id="paint1_linear_1036_5115" x1="0" y1="180" x2="474" y2="180" gradientUnits="userSpaceOnUse">
<stop stop-color="#FFA1B8"/>
<stop offset="1" stop-color="#0495FF"/>
</linearGradient>
</defs>
</svg>
