<svg width="578" height="101" viewBox="0 0 578 101" fill="none" xmlns="http://www.w3.org/2000/svg">
<path d="M37.3066 71.2715C37.4889 71.4082 38.013 71.4766 38.8789 71.4766C39.7448 71.4766 40.4056 71.1803 40.8613 70.5879C41.3171 69.9954 41.5449 68.9473 41.5449 67.4434V66.1445C41.5449 64.4583 41.3398 63.2507 40.9297 62.5215C40.5651 61.7923 39.9271 61.4277 39.0156 61.4277C38.1497 61.4277 37.5573 61.5189 37.2383 61.7012C37.2839 61.929 37.3066 62.3164 37.3066 62.8633V71.2715ZM37.3066 45.5C37.4889 45.6367 38.013 45.7051 38.8789 45.7051C39.7448 45.7051 40.4056 45.3633 40.8613 44.6797C41.3171 43.9961 41.5449 42.8796 41.5449 41.3301V40.9199C41.5449 39.2793 41.3398 38.1172 40.9297 37.4336C40.5651 36.7044 39.9271 36.3398 39.0156 36.3398C38.1497 36.3398 37.5573 36.431 37.2383 36.6133C37.2839 36.8411 37.3066 37.2285 37.3066 37.7754V45.5ZM0.1875 19.1816C0.1875 18.1335 1.05339 16.9486 2.78516 15.627C6.43099 12.847 12.8568 10.6823 22.0625 9.13281C26.8477 8.35807 32.1113 7.9707 37.8535 7.9707C51.5254 7.9707 61.8704 10.6139 68.8887 15.9004C75.041 20.5488 78.1172 26.6556 78.1172 34.2207C78.1172 36.9551 77.6387 39.6439 76.6816 42.2871C75.7246 44.8848 74.3574 46.8444 72.5801 48.166C70.1647 46.9355 67.8405 46.3203 65.6074 46.3203C64.5592 46.3203 63.7617 46.5254 63.2148 46.9355C62.668 47.3457 62.3945 48.0977 62.3945 49.1914C69.0938 49.4648 74.3118 51.8802 78.0488 56.4375C81.3757 60.5846 83.0391 65.7344 83.0391 71.8867C83.0391 81.4115 79.0514 88.3385 71.0762 92.668C63.6022 96.724 52.3457 98.752 37.3066 98.752C26.7793 98.752 19.0547 98.4329 14.1328 97.7949C9.21094 97.1113 5.65625 95.5391 3.46875 93.0781C1.28125 90.6172 0.1875 86.8802 0.1875 81.8672V19.1816ZM129.004 59.9238V71.8867C129.323 72.2057 129.847 72.3652 130.576 72.3652C131.305 72.3652 131.829 72.1146 132.148 71.6133C132.467 71.112 132.627 70.2461 132.627 69.0156V59.2402C132.627 54.8652 132.445 51.9714 132.08 50.5586C131.715 49.1003 131.032 48.3711 130.029 48.3711C129.391 48.3711 128.844 48.599 128.389 49.0547C128.799 53.5664 129.004 57.1895 129.004 59.9238ZM103.438 90.207C95.9635 83.0065 92.2266 73.2539 92.2266 60.9492C92.2266 48.599 95.7357 38.8691 102.754 31.7598C109.818 24.6048 119.069 21.0273 130.508 21.0273C141.947 21.0273 151.198 24.7415 158.262 32.1699C165.28 39.5983 168.789 49.2826 168.789 61.2227C168.789 73.1172 165.394 82.5736 158.604 89.5918C151.859 96.61 142.676 100.119 131.055 100.119C119.434 100.119 110.228 96.8151 103.438 90.207ZM215.301 59.9238V71.8867C215.62 72.2057 216.144 72.3652 216.873 72.3652C217.602 72.3652 218.126 72.1146 218.445 71.6133C218.764 71.112 218.924 70.2461 218.924 69.0156V59.2402C218.924 54.8652 218.742 51.9714 218.377 50.5586C218.012 49.1003 217.329 48.3711 216.326 48.3711C215.688 48.3711 215.141 48.599 214.686 49.0547C215.096 53.5664 215.301 57.1895 215.301 59.9238ZM189.734 90.207C182.26 83.0065 178.523 73.2539 178.523 60.9492C178.523 48.599 182.033 38.8691 189.051 31.7598C196.115 24.6048 205.366 21.0273 216.805 21.0273C228.243 21.0273 237.495 24.7415 244.559 32.1699C251.577 39.5983 255.086 49.2826 255.086 61.2227C255.086 73.1172 251.691 82.5736 244.9 89.5918C238.156 96.61 228.973 100.119 217.352 100.119C205.73 100.119 196.525 96.8151 189.734 90.207ZM303.717 100.119C291.868 100.119 282.411 96.4733 275.348 89.1816C268.329 81.8444 264.82 72.0234 264.82 59.7188C264.82 47.4141 268.808 37.6842 276.783 30.5293C283.893 24.1491 292.779 20.959 303.443 20.959C312.923 20.959 320.784 23.306 327.027 28C333.271 32.6484 336.393 38.9831 336.393 47.0039C336.393 52.5638 334.661 57.0983 331.197 60.6074C327.779 64.071 323.268 65.8027 317.662 65.8027C313.105 65.8027 309.299 64.5951 306.246 62.1797C303.238 59.7188 301.461 56.5286 300.914 52.6094C298.909 52.6094 297.906 53.3385 297.906 54.7969C297.906 58.1237 299.547 61.1771 302.828 63.957C306.611 67.2383 311.305 68.8789 316.91 68.8789C322.561 68.8789 327.232 67.6712 330.924 65.2559C333.202 68.765 334.342 73.026 334.342 78.0391C334.342 83.8724 331.835 88.8626 326.822 93.0098C321.08 97.7493 313.378 100.119 303.717 100.119ZM414.76 64.1621C414.76 67.4434 415.124 70.0866 415.854 72.0918C416.583 74.097 417.859 75.6693 419.682 76.8086C419.727 77.0365 419.75 77.4694 419.75 78.1074V79.3379C419.75 85.8092 417.79 90.8451 413.871 94.4453C410.408 97.6354 406.124 99.2305 401.02 99.2305C397.556 99.2305 394.389 98.4102 391.518 96.7695C388.646 95.1289 386.596 92.7591 385.365 89.6602C383.816 89.6602 383.041 90.4121 383.041 91.916C383.041 93.1921 383.839 94.6276 385.434 96.2227C382.471 98.2279 378.005 99.2305 372.035 99.2305C363.604 99.2305 356.859 96.9518 351.801 92.3945C346.788 87.7917 344.281 81.3887 344.281 73.1855C344.281 64.9368 346.947 58.5566 352.279 54.0449C357.156 49.9889 363.467 47.9609 371.215 47.9609C373.858 47.9609 376.41 48.1432 378.871 48.5078C380.512 48.8268 381.4 49.0091 381.537 49.0547C381.674 48.599 381.742 48.2116 381.742 47.8926C381.742 46.7077 380.74 45.9102 378.734 45.5C376.729 45.0898 374.109 44.8848 370.873 44.8848C363.992 44.8848 358.113 46.2747 353.236 49.0547C351.003 45.2721 349.887 40.487 349.887 34.6992C349.887 31.418 350.297 28.9798 351.117 27.3848C354.398 25.8809 358.568 24.5592 363.627 23.4199C368.686 22.235 374.018 21.6426 379.623 21.6426C391.199 21.6426 399.949 24.1719 405.873 29.2305C411.798 34.2891 414.76 41.4668 414.76 50.7637V64.1621ZM379.281 67.5117C377.367 67.5117 376.41 68.3776 376.41 70.1094C376.41 71.75 377.527 72.5703 379.76 72.5703C381.309 72.5703 382.449 72.2057 383.178 71.4766C383.907 70.7018 384.271 69.3802 384.271 67.5117C384.271 67.5117 382.608 67.5117 379.281 67.5117ZM448.967 98.8887C443.544 98.8887 439.214 97.9089 435.979 95.9492C432.378 93.8984 430.578 90.8678 430.578 86.8574V51.6523C427.889 47.8698 426.545 43.2214 426.545 37.707C426.545 32.1471 427.889 27.3392 430.578 23.2832H441.037C446.415 23.2832 450.266 25.015 452.59 28.4785C451.451 29.7546 450.448 31.3724 449.582 33.332C448.716 35.2917 448.283 36.7044 448.283 37.5703C448.283 38.3906 448.488 39.0059 448.898 39.416C449.354 39.8262 449.992 40.0312 450.812 40.0312C452.408 33.6966 455.438 29.0482 459.904 26.0859C463.596 23.5794 468.153 22.3262 473.576 22.3262C480.321 22.3262 485.607 23.7617 489.436 26.6328C490.803 30.2786 491.486 34.7448 491.486 40.0312C491.486 45.2721 490.438 50.0345 488.342 54.3184C486.792 55.1387 484.65 55.8451 481.916 56.4375C479.182 56.9844 476.424 57.2578 473.645 57.2578C470.865 57.2578 468.358 57.0755 466.125 56.7109C463.938 56.3008 462.342 55.9362 461.34 55.6172C460.975 55.9818 460.793 56.5059 460.793 57.1895C460.793 57.873 461.226 58.3971 462.092 58.7617C463.003 59.0807 464.507 59.4453 466.604 59.8555V94.1719C461.636 97.3164 455.757 98.8887 448.967 98.8887ZM539.434 49.5332C538.978 49.0775 538.431 48.8496 537.793 48.8496C536.79 48.8496 536.107 49.5788 535.742 51.0371C535.378 52.4499 535.195 55.3438 535.195 59.7188V66.6914C535.195 67.9219 535.355 68.7878 535.674 69.2891C535.993 69.7904 536.517 70.041 537.246 70.041C537.975 70.041 538.499 69.8815 538.818 69.5625V60.4023C538.818 55.9362 539.023 52.3132 539.434 49.5332ZM534.512 9.13281C536.927 6.30729 539.593 4.18815 542.51 2.77539C545.426 1.31706 549.141 0.587891 553.652 0.587891C559.121 0.587891 563.564 2.11458 566.982 5.16797C570.492 8.44922 572.246 12.8698 572.246 18.4297V63.5469C572.246 70.3372 573.887 74.7578 577.168 76.8086C577.214 77.0365 577.236 77.4694 577.236 78.1074V79.3379C577.236 85.8092 575.277 90.8451 571.357 94.4453C567.894 97.6354 563.61 99.2305 558.506 99.2305C554.951 99.2305 551.875 98.4785 549.277 96.9746C546.224 95.2428 544.082 92.873 542.852 89.8652C541.302 89.8652 540.527 90.6172 540.527 92.1211C540.527 92.8047 540.778 93.6022 541.279 94.5137C541.826 95.3796 542.555 96.1543 543.467 96.8379C540.778 98.4329 537.292 99.2305 533.008 99.2305C527.22 99.2305 521.797 97.9089 516.738 95.2656C511.725 92.5768 507.738 88.5436 504.775 83.166C501.357 77.0137 499.648 69.5625 499.648 60.8125C499.648 49.1458 502.907 39.9857 509.424 33.332C515.986 26.6784 524.349 23.3516 534.512 23.3516C540.527 23.3516 545.768 24.4909 550.234 26.7695C550.736 26.2682 550.986 25.7441 550.986 25.1973C550.986 23.8301 549.368 22.668 546.133 21.7109C542.897 20.7539 539.639 20.2754 536.357 20.2754C536.357 15.627 535.742 11.9128 534.512 9.13281Z" fill="url(#paint0_linear_956_5707)"/>
<defs>
<linearGradient id="paint0_linear_956_5707" x1="-2" y1="64" x2="577" y2="64" gradientUnits="userSpaceOnUse">
<stop stop-color="#FFA1B8"/>
<stop offset="1" stop-color="#0495FF"/>
</linearGradient>
</defs>
</svg>
