<svg width="161" height="23" viewBox="0 0 161 23" fill="none" xmlns="http://www.w3.org/2000/svg">
<path d="M12.1761 22.9202C11.4241 22.9202 11.0481 22.4402 11.0481 21.4802V12.7922C11.0481 12.7122 11.0081 12.6722 10.9281 12.6722H6.65611C6.57611 12.6722 6.53611 12.7122 6.53611 12.7922V19.2962C6.53611 20.2562 6.16811 20.7362 5.43211 20.7362C4.68011 20.7362 4.30411 20.2562 4.30411 19.2962V13.4402C4.30411 13.3602 4.28011 13.3522 4.23211 13.4162C3.30411 14.4242 2.64011 15.0722 2.24011 15.3602C1.45611 15.9202 0.84011 15.8802 0.39211 15.2402C-0.0558903 14.6002 0.12011 14.0082 0.92011 13.4642C2.77611 12.2002 4.52011 9.92018 6.15211 6.62418C6.18411 6.56018 6.16011 6.52818 6.08011 6.52818H1.92811C0.96811 6.52818 0.48811 6.16818 0.48811 5.44818C0.48811 4.74418 0.96811 4.39218 1.92811 4.39218H6.89611C7.07211 4.39218 7.19211 4.31218 7.25611 4.15218C7.70411 3.01618 7.94411 2.37618 7.97611 2.23218C8.21611 1.28818 8.71211 0.920184 9.46411 1.12818C10.2321 1.35218 10.4561 1.92818 10.1361 2.85618L9.65611 4.27218C9.62411 4.35218 9.64811 4.39218 9.72811 4.39218H20.1201C21.0801 4.39218 21.5601 4.74418 21.5601 5.44818C21.5601 6.16818 21.0801 6.52818 20.1201 6.52818H8.98411C8.79211 6.52818 8.65611 6.61618 8.57611 6.79218C8.00011 8.04018 7.30411 9.27218 6.48811 10.4882C6.44011 10.5522 6.45611 10.5842 6.53611 10.5842H10.9281C11.0081 10.5842 11.0481 10.5442 11.0481 10.4642V9.00019C11.0481 8.04018 11.4241 7.56018 12.1761 7.56018C12.9281 7.56018 13.3041 8.04018 13.3041 9.00019V10.4642C13.3041 10.5442 13.3441 10.5842 13.4241 10.5842H18.8721C19.8321 10.5842 20.3121 11.0642 20.3121 12.0242V18.1442C20.3121 18.7202 20.2721 19.0802 20.1921 19.2242C20.1281 19.3682 20.0561 19.5282 19.9761 19.7042C19.8961 19.8642 19.6561 20.0242 19.2561 20.1842C18.6001 20.4402 17.6081 20.5602 16.2801 20.5442C15.3201 20.5282 14.8481 20.1842 14.8641 19.5122C14.8641 18.8402 15.3441 18.5122 16.3041 18.5282H17.5521C17.7441 18.5282 17.8721 18.4962 17.9361 18.4322C18.0161 18.3682 18.0561 18.2562 18.0561 18.0962V12.7922C18.0561 12.7122 18.0161 12.6722 17.9361 12.6722H13.4241C13.3441 12.6722 13.3041 12.7122 13.3041 12.7922V21.4802C13.3041 22.4402 12.9281 22.9202 12.1761 22.9202Z" fill="#F7F9FC"/>
<path d="M36.8961 22.8722C36.1121 22.8722 35.7201 22.3922 35.7201 21.4322V11.7842C35.7201 11.7042 35.6801 11.6642 35.6001 11.6642H28.1841C27.2241 11.6642 26.7441 11.2962 26.7441 10.5602C26.7441 9.82418 27.2241 9.45618 28.1841 9.45618H35.5281C35.6081 9.45618 35.6481 9.41618 35.6481 9.33618V2.32818C35.6481 1.36818 36.0401 0.888184 36.8241 0.888184C37.6081 0.888184 38.0001 1.36818 38.0001 2.32818V3.88818C38.0001 3.96818 38.0401 4.00818 38.1201 4.00818H44.3601C45.3201 4.00818 45.8001 4.36018 45.8001 5.06418C45.8001 5.78418 45.3201 6.14418 44.3601 6.14418H38.1201C38.0401 6.14418 38.0001 6.18419 38.0001 6.26418V9.33618C38.0001 9.41618 38.0401 9.45618 38.1201 9.45618H46.6881C47.6481 9.45618 48.1281 9.82418 48.1281 10.5602C48.1281 11.2962 47.6481 11.6642 46.6881 11.6642H38.1921C38.1121 11.6642 38.0721 11.7042 38.0721 11.7842V21.4322C38.0721 22.3922 37.6801 22.8722 36.8961 22.8722ZM46.4721 18.1922C46.1041 18.8962 45.4961 19.0162 44.6481 18.5522C43.9281 18.1522 42.2401 17.4002 39.5841 16.2962C38.7041 15.9282 38.3841 15.4322 38.6241 14.8082C38.8801 14.1842 39.4561 14.0402 40.3521 14.3762C42.9921 15.3682 44.7761 16.0882 45.7041 16.5362C46.5681 16.9522 46.8241 17.5042 46.4721 18.1922Z" fill="#F7F9FC"/>
<path d="M56.9121 18.6962C56.9121 18.7762 56.9521 18.8162 57.0321 18.8162H59.7201C62.6161 18.8162 64.0641 17.7682 64.0641 15.6722C64.0641 13.7522 62.6161 12.7922 59.7201 12.7922H57.0321C56.9521 12.7922 56.9121 12.8322 56.9121 12.9122V18.6962ZM56.9121 10.5842C56.9121 10.6642 56.9521 10.7042 57.0321 10.7042H61.8801C62.8401 10.7042 63.3201 10.9682 63.3201 11.4962C63.3201 11.5762 63.3841 11.6322 63.5121 11.6642C64.4401 11.8562 65.2081 12.2962 65.8161 12.9842C66.4721 13.7202 66.8001 14.6642 66.8001 15.8162C66.8001 17.5122 66.1601 18.8162 64.8801 19.7282C63.6801 20.5762 62.0641 21.0002 60.0321 21.0002H55.5681C54.6081 21.0002 54.1281 20.5202 54.1281 19.5602V4.75218C54.1281 3.79218 54.6081 3.31218 55.5681 3.31218H59.6001C63.7601 3.31218 65.8401 4.76818 65.8401 7.68019C65.8401 8.54418 65.6161 9.32018 65.1681 10.0082C64.7041 10.7442 64.2401 11.1922 63.7761 11.3522C63.3281 11.4962 63.1041 11.0402 63.1041 9.98418V8.04018C63.1041 7.12818 62.8001 6.48018 62.1921 6.09618C61.5841 5.69618 60.6401 5.49618 59.3601 5.49618H57.0321C56.9521 5.49618 56.9121 5.53618 56.9121 5.61618V10.5842Z" fill="#F7F9FC"/>
<path d="M77.5759 21.3122C75.8639 21.3122 74.4239 20.7122 73.2559 19.5122C71.9919 18.2162 71.3599 16.5122 71.3599 14.4002C71.3599 12.2882 71.9919 10.5842 73.2559 9.28818C74.4239 8.07218 75.8639 7.46418 77.5759 7.46418C79.2879 7.46418 80.7359 8.07218 81.9199 9.28818C83.1679 10.5842 83.7919 12.2882 83.7919 14.4002C83.7919 16.5122 83.1679 18.2162 81.9199 19.5122C80.7359 20.7122 79.2879 21.3122 77.5759 21.3122ZM75.1279 17.7842C75.7359 18.6322 76.5519 19.0562 77.5759 19.0562C78.6159 19.0562 79.4399 18.6322 80.0479 17.7842C80.6559 16.9362 80.9599 15.8082 80.9599 14.4002C80.9599 12.9922 80.6559 11.8642 80.0479 11.0162C79.4399 10.1682 78.6159 9.74418 77.5759 9.74418C76.5519 9.74418 75.7359 10.1682 75.1279 11.0162C74.5199 11.8642 74.2159 12.9922 74.2159 14.4002C74.2159 15.8082 74.5199 16.9362 75.1279 17.7842Z" fill="#F7F9FC"/>
<path d="M94.7181 21.3122C93.0061 21.3122 91.5661 20.7122 90.3981 19.5122C89.1341 18.2162 88.5021 16.5122 88.5021 14.4002C88.5021 12.2882 89.1341 10.5842 90.3981 9.28818C91.5661 8.07218 93.0061 7.46418 94.7181 7.46418C96.4301 7.46418 97.8781 8.07218 99.0621 9.28818C100.31 10.5842 100.934 12.2882 100.934 14.4002C100.934 16.5122 100.31 18.2162 99.0621 19.5122C97.8781 20.7122 96.4301 21.3122 94.7181 21.3122ZM92.2701 17.7842C92.8781 18.6322 93.6941 19.0562 94.7181 19.0562C95.7581 19.0562 96.5821 18.6322 97.1901 17.7842C97.7981 16.9362 98.1021 15.8082 98.1021 14.4002C98.1021 12.9922 97.7981 11.8642 97.1901 11.0162C96.5821 10.1682 95.7581 9.74418 94.7181 9.74418C93.6941 9.74418 92.8781 10.1682 92.2701 11.0162C91.6621 11.8642 91.3581 12.9922 91.3581 14.4002C91.3581 15.8082 91.6621 16.9362 92.2701 17.7842Z" fill="#F7F9FC"/>
<path d="M111.956 21.3122C110.116 21.3122 108.62 20.7122 107.468 19.5122C106.252 18.2482 105.644 16.5522 105.644 14.4242C105.644 12.2962 106.3 10.5842 107.612 9.28818C108.828 8.07218 110.348 7.46418 112.172 7.46418C113.596 7.46418 114.54 7.67218 115.004 8.08818C115.724 8.71218 115.836 9.30419 115.34 9.86419C114.844 10.4242 114.412 10.5442 114.044 10.2242C113.692 9.90418 113.116 9.74418 112.316 9.74418C111.196 9.74418 110.276 10.1762 109.556 11.0402C108.852 11.8882 108.5 13.0082 108.5 14.4002C108.5 15.7922 108.844 16.9202 109.532 17.7842C110.22 18.6322 111.116 19.0562 112.22 19.0562C113.196 19.0562 113.756 19.0002 113.9 18.8882C114.62 18.2642 115.212 18.2242 115.676 18.7682C116.14 19.2962 116.02 19.8802 115.316 20.5202C114.708 21.0482 113.588 21.3122 111.956 21.3122Z" fill="#F7F9FC"/>
<path d="M124.241 21.3122C123.089 21.3122 122.153 20.9682 121.433 20.2802C120.713 19.5762 120.353 18.6482 120.353 17.4962C120.353 16.0882 120.977 15.0002 122.225 14.2322C123.489 13.4482 125.449 12.9122 128.105 12.6242C128.201 12.6082 128.249 12.5522 128.249 12.4562C128.217 10.6322 127.377 9.72018 125.729 9.72018C124.593 9.72018 123.745 9.89618 123.185 10.2482C122.369 10.7602 121.777 10.7202 121.409 10.1282C121.025 9.52018 121.241 8.96018 122.057 8.44818C123.097 7.79218 124.481 7.46418 126.209 7.46418C127.825 7.46418 129.033 7.96019 129.833 8.95218C130.617 9.89618 131.009 11.2642 131.009 13.0562V19.5842C131.009 20.5282 130.633 21.0242 129.881 21.0722C129.145 21.1362 128.713 20.7042 128.585 19.7762L128.561 19.6562C128.545 19.5442 128.521 19.4882 128.489 19.4882C128.457 19.4882 128.329 19.5842 128.105 19.7762C126.921 20.8002 125.633 21.3122 124.241 21.3122ZM125.081 19.1282C126.073 19.1282 127.033 18.7042 127.961 17.8562C128.153 17.6802 128.249 17.4562 128.249 17.1842V14.4722C128.249 14.3922 128.209 14.3602 128.129 14.3762C126.321 14.5842 125.001 14.9362 124.169 15.4322C123.401 15.8962 123.017 16.5202 123.017 17.3042C123.017 17.9282 123.113 18.3202 123.305 18.4802C123.513 18.6242 123.705 18.7682 123.881 18.9122C124.057 19.0562 124.457 19.1282 125.081 19.1282Z" fill="#F7F9FC"/>
<path d="M138.718 21.0002C137.79 21.0002 137.326 20.5202 137.326 19.5602V9.21618C137.326 8.27218 137.702 7.78418 138.454 7.75218C139.206 7.72018 139.622 8.17618 139.702 9.12018L139.774 10.0322C139.79 10.1282 139.806 10.1762 139.822 10.1762C139.854 10.1762 139.918 10.0882 140.014 9.91218C140.382 9.24018 140.894 8.66418 141.55 8.18418C142.222 7.70418 142.91 7.46418 143.614 7.46418C144.206 7.46418 144.646 7.53619 144.934 7.68019C145.222 7.80818 145.214 8.24818 144.91 9.00019C144.622 9.73618 144.382 10.0802 144.19 10.0322C144.014 9.96818 143.71 9.93618 143.278 9.93618C142.67 9.93618 142.102 10.1442 141.574 10.5602C140.966 11.0562 140.542 11.6162 140.302 12.2402C140.158 12.5922 140.086 12.9602 140.086 13.3442V19.5602C140.086 20.5202 139.63 21.0002 138.718 21.0002Z" fill="#F7F9FC"/>
<path d="M153.848 21.3122C152.168 21.3122 150.84 20.7042 149.864 19.4882C148.888 18.2722 148.4 16.5762 148.4 14.4002C148.4 12.3362 148.976 10.6482 150.128 9.33618C151.216 8.08818 152.528 7.46418 154.064 7.46418C154.768 7.46418 155.2 7.50418 155.36 7.58418C155.792 7.77618 156.224 7.96818 156.656 8.16018C156.704 8.17618 156.992 8.41618 157.52 8.88019C157.584 8.92818 157.616 8.91218 157.616 8.83218L157.544 7.51218C157.512 7.01618 157.496 6.52018 157.496 6.02419V3.31218C157.496 2.35218 157.96 1.87218 158.888 1.87218C159.8 1.87218 160.256 2.35218 160.256 3.31218V19.5842C160.256 20.5282 159.88 21.0242 159.128 21.0722C158.392 21.1362 157.96 20.7042 157.832 19.7762L157.808 19.6802C157.792 19.5682 157.768 19.5122 157.736 19.5122C157.704 19.5122 157.592 19.6082 157.4 19.8002C156.424 20.8082 155.24 21.3122 153.848 21.3122ZM154.52 19.0322C155.576 19.0322 156.472 18.6082 157.208 17.7602C157.4 17.5362 157.496 17.2722 157.496 16.9682V11.3762C157.496 11.1042 157.4 10.8802 157.208 10.7042C156.52 10.0802 155.648 9.76818 154.592 9.76818C153.648 9.76818 152.864 10.1762 152.24 10.9922C151.584 11.8562 151.256 12.9842 151.256 14.3762C151.256 15.8642 151.536 17.0162 152.096 17.8322C152.656 18.6322 153.464 19.0322 154.52 19.0322Z" fill="#F7F9FC"/>
</svg>
